<svg xmlns="http://www.w3.org/2000/svg" width="812" height="573" viewBox="0 0 812 573" version="1.1"><path d="M 469.500 0.689 C 438.052 4.769, 410.800 17.068, 387.275 37.797 C 376.207 47.549, 363.580 62.448, 341.759 91.500 C 317.564 123.714, 307.847 135.265, 297.135 144.552 C 280.912 158.616, 268.411 164.979, 248.923 169.091 C 235.571 171.908, 216.763 172.149, 206.500 169.634 C 180.489 163.260, 162.335 142.014, 161.951 117.500 C 161.883 113.129, 161.747 112.814, 160.873 115 C 160.323 116.375, 159.632 121.100, 159.338 125.500 C 156.462 168.472, 199.767 200.132, 251.566 192.928 C 276.750 189.425, 303.492 175.972, 323.733 156.624 C 335.448 145.426, 340.597 139.146, 359.502 113 C 385.154 77.521, 400.142 60.475, 416 48.740 C 445.790 26.696, 479.131 21.177, 510.209 33.145 C 527.848 39.938, 543.497 54.039, 551.513 70.367 C 558.083 83.747, 559.481 90.002, 559.476 106 C 559.473 117.316, 559.096 120.714, 557.143 127 C 548.774 153.947, 529.183 173.527, 502.500 181.611 C 494.480 184.041, 491.921 184.338, 479 184.338 C 466.133 184.338, 463.510 184.036, 455.703 181.660 C 431.091 174.167, 413.777 160.138, 401.204 137.500 L 397.871 131.500 398.524 135.500 C 400.143 145.424, 406.863 158.703, 415.828 169.696 C 427.137 183.564, 450.037 195.474, 472.227 199.029 C 483.040 200.761, 503.257 199.794, 513.500 197.053 C 533.319 191.752, 554.122 178.197, 567.159 162.092 C 582.900 142.646, 589.952 121.575, 588.710 97.696 C 586.324 51.834, 556.702 15.110, 513.177 4.055 C 499.638 0.617, 481.080 -0.814, 469.500 0.689 M 322.706 22.698 C 321.057 23.126, 320.967 24.146, 321.591 35.384 L 322.270 47.604 315.770 48.802 C 306.614 50.489, 306.033 50.393, 304.850 47 C 304.021 44.623, 303.219 44, 300.983 44 C 298.242 44, 298.189 44.100, 299.126 47.494 C 300.343 51.902, 300.031 53.752, 297.435 57.500 C 293.792 62.762, 293.732 63, 296.056 63 C 297.252 63, 299.641 61.486, 301.365 59.636 C 304.276 56.513, 305.057 56.232, 312.304 55.709 L 320.109 55.146 316.927 60.823 C 315.177 63.945, 312.635 68.412, 311.278 70.750 L 308.810 75 311.218 75 C 312.588 75, 314.865 73.707, 316.500 72 C 318.081 70.350, 320.360 69, 321.565 69 C 324.240 69, 327.226 65.919, 325.208 65.240 C 323.372 64.622, 325.673 62, 328.051 62 C 330.659 62, 333.536 58.949, 331.888 57.931 C 329.937 56.725, 332.684 54.004, 335.872 53.983 C 340.599 53.951, 352.376 51.052, 353.878 49.550 C 355.169 48.259, 354.993 47.948, 352.423 46.970 C 350.815 46.358, 346.456 46.002, 342.736 46.179 C 336.781 46.462, 335.898 46.270, 335.363 44.576 C 334.977 43.356, 335.394 42.185, 336.503 41.374 C 338.955 39.581, 337.762 37.132, 334.719 37.713 C 332.867 38.067, 332.149 37.676, 331.733 36.087 C 331.391 34.780, 331.772 33.667, 332.747 33.121 C 334.966 31.880, 333.627 29.023, 331.132 29.676 C 329.577 30.082, 328.683 29.299, 327.050 26.098 C 325.900 23.844, 324.856 22.052, 324.730 22.116 C 324.603 22.180, 323.693 22.442, 322.706 22.698 M 444.500 42.928 C 427.167 49.106, 409.827 62.091, 392.869 81.591 C 367.953 110.240, 335.599 158.784, 294.028 229.891 C 279.825 254.186, 279.773 254.298, 280.902 258.068 C 283.785 267.689, 296.296 271.500, 306.953 266.004 C 315.576 261.558, 319.214 254.447, 342.001 197.500 C 355.297 164.273, 361.425 150.138, 369.529 134 C 391.642 89.965, 417.925 59.813, 446.850 45.296 C 453.618 41.900, 454.792 41.015, 452.455 41.073 C 450.830 41.113, 447.250 41.948, 444.500 42.928 M 232.500 54.163 C 215.308 56.100, 197.921 61.627, 187.723 68.395 C 177.071 75.466, 168.386 87.118, 165.395 98.350 C 161.153 114.281, 167.202 136.620, 179.593 150.785 C 183.533 155.289, 191.778 162, 193.371 162 C 193.653 162, 191.090 158.287, 187.677 153.750 C 179.691 143.133, 176.148 135.158, 175.025 125.272 C 173.520 112.029, 175.936 98.904, 181.684 89.096 C 193.626 68.719, 217.424 60.309, 275.500 55.945 C 283.750 55.325, 291.625 54.444, 293 53.988 C 296.391 52.862, 242.666 53.018, 232.500 54.163 M 456.625 66.517 C 455.731 67.411, 455 68.569, 455 69.090 C 455 70.323, 449.948 69.119, 447.977 67.416 C 447.061 66.625, 445.915 66.435, 445.099 66.939 C 443.394 67.993, 444.711 70.325, 446.601 69.600 C 447.371 69.304, 448 69.408, 448 69.830 C 448 70.253, 449.520 71.148, 451.377 71.819 C 454.400 72.912, 455.299 72.767, 459.934 70.439 C 462.782 69.009, 464.940 67.312, 464.729 66.669 C 464.116 64.799, 458.450 64.693, 456.625 66.517 M 422.250 68.036 C 421.012 68.531, 420 69.400, 420 69.968 C 420 70.535, 419.367 71, 418.594 71 C 417.680 71, 417.370 71.700, 417.710 73 C 418.112 74.535, 417.741 75, 416.117 75 C 414.642 75, 414 75.629, 414 77.072 C 414 78.685, 414.537 79.073, 416.424 78.826 C 417.938 78.627, 419.814 79.416, 421.424 80.928 C 423.605 82.977, 424 84.219, 424 89.021 C 424 92.140, 423.341 96.013, 422.536 97.627 C 421.092 100.521, 421.426 105, 423.086 105 C 423.556 105, 424.522 106.998, 425.234 109.441 C 426.159 112.611, 427.527 114.553, 430.015 116.225 C 431.932 117.514, 433.644 119.566, 433.820 120.784 C 433.995 122.003, 434.755 123, 435.507 123 C 436.514 123, 436.723 123.932, 436.301 126.534 C 435.926 128.844, 436.337 131.420, 437.487 133.970 C 439.280 137.948, 439.242 138.998, 436.935 149.082 C 436.227 152.176, 436.008 155.520, 436.444 156.582 C 437.088 158.153, 437.538 157.606, 438.932 153.557 C 440.196 149.888, 441.439 148.212, 443.754 147.057 C 445.469 146.201, 447.324 144.527, 447.875 143.337 C 448.427 142.147, 449.724 140.905, 450.759 140.577 C 451.793 140.248, 453.421 138.339, 454.377 136.335 C 456.259 132.388, 455.849 131.608, 451.250 130.383 C 450.011 130.052, 449 129.003, 449 128.047 C 449 124.620, 443.102 121.395, 437.750 121.894 C 435.574 122.097, 435 121.730, 435 120.134 C 435 119.025, 434.543 117.835, 433.984 117.490 C 433.425 117.144, 433.226 116.443, 433.543 115.931 C 433.859 115.419, 433.218 115, 432.118 115 C 429.465 115, 428.662 113.500, 429.989 111.021 C 430.790 109.524, 432.081 109, 434.964 109 C 438.040 109, 439.637 108.265, 442.569 105.500 C 444.610 103.575, 447.229 101.948, 448.390 101.884 C 450.079 101.791, 450.151 101.677, 448.750 101.311 C 445.230 100.391, 447.685 98, 452.149 98 C 453.749 98, 453.999 97.563, 453.435 95.750 C 453.050 94.513, 452.345 93.350, 451.868 93.167 C 451.391 92.983, 451 92.196, 451 91.417 C 451 90.638, 450.325 90, 449.500 90 C 448.675 90, 448 90.670, 448 91.489 C 448 93.170, 445.008 97, 443.694 97 C 443.221 97, 443.039 96.438, 443.289 95.750 C 443.540 95.063, 442.846 93.510, 441.746 92.301 C 439.234 89.538, 439.969 87.541, 444.476 84.882 C 447.967 82.822, 449.790 78.899, 446.365 80.815 C 444.238 82.006, 437.976 80.115, 437.203 78.049 C 436.495 76.154, 433.937 74.075, 432.263 74.032 C 431.583 74.014, 429.558 72.456, 427.763 70.568 C 425.055 67.720, 424.118 67.290, 422.250 68.036 M 463.911 71.879 C 461.083 74.222, 461.065 74.301, 462.737 77.133 C 464.220 79.642, 464.265 80.420, 463.092 83.254 C 462.354 85.039, 461.529 88.075, 461.260 90 L 460.770 93.500 463.635 90.814 C 465.211 89.336, 467.751 87.655, 469.280 87.077 C 471.137 86.375, 472.668 84.608, 473.893 81.749 C 474.902 79.397, 476.463 76.860, 477.363 76.113 C 479.408 74.417, 479.470 73, 477.500 73 C 476.675 73, 476 72.169, 476 71.154 C 476 68.257, 467.682 68.756, 463.911 71.879 M 450.658 77.676 C 450.286 78.048, 450.982 79.417, 452.205 80.718 C 454.125 82.761, 454.253 83.365, 453.145 85.140 C 451.769 87.343, 452.188 88.620, 453.933 87.541 C 455.386 86.643, 455.286 79.686, 453.800 78.200 C 452.437 76.837, 451.631 76.703, 450.658 77.676 M 514.305 84.139 C 512.197 86.247, 511.142 86.192, 507.809 83.798 C 506.431 82.809, 505.735 82.930, 504.059 84.447 C 501.607 86.666, 501.501 87.644, 503.500 89.643 C 505.199 91.341, 505.544 93.454, 503.963 92.477 C 503.393 92.125, 501.129 92.773, 498.932 93.918 C 494.144 96.414, 494.365 96.394, 493.596 94.389 C 493.153 93.236, 493.407 92.942, 494.489 93.357 C 497.424 94.484, 495.957 92.225, 492.941 90.976 C 490.028 89.769, 489.695 89.892, 485.941 93.557 C 481.712 97.687, 481.123 99, 483.500 99 C 484.325 99, 485 99.477, 485 100.059 C 485 100.641, 485.481 100.821, 486.068 100.458 C 486.656 100.095, 486.873 99.111, 486.551 98.272 C 486.224 97.420, 486.746 96.153, 487.733 95.405 C 489.937 93.732, 491.824 93.576, 490.200 95.200 C 488.476 96.924, 488.686 99.334, 490.500 98.638 C 492.678 97.803, 492.339 98.897, 489.750 101.056 C 488.512 102.089, 486.509 102.948, 485.297 102.967 C 481.746 103.020, 478 105.173, 478 107.161 C 478 108.333, 477.275 109, 476 109 C 474.889 109, 474 109.667, 474 110.500 C 474 112.385, 476.380 112.452, 477.908 110.611 C 479.813 108.316, 483.760 108.077, 485.630 110.143 C 487.772 112.510, 489.211 112.493, 490.717 110.082 C 492.053 107.942, 494.710 107.912, 496.014 110.023 C 497.262 112.041, 496.272 113, 492.941 113 C 491.323 113, 490 113.450, 490 114 C 490 114.550, 490.909 115, 492.019 115 C 493.624 115, 493.920 115.470, 493.464 117.288 C 493.140 118.578, 493.764 121.617, 494.894 124.254 C 496.861 128.842, 496.958 128.911, 499.950 127.868 C 502.811 126.870, 504.171 125, 502.035 125 C 500.880 125, 498.618 121.048, 499.353 120.314 C 499.636 120.031, 500.882 120.744, 502.122 121.899 C 503.363 123.055, 505.080 124.014, 505.939 124.032 C 508.553 124.085, 511 126.581, 511 129.194 C 511 132.907, 511.801 133.046, 514.968 129.878 C 516.551 128.295, 518.218 127.017, 518.673 127.038 C 519.128 127.059, 520.733 128.859, 522.240 131.038 C 525.390 135.591, 527.542 136.296, 526.579 132.458 C 526.032 130.281, 526.376 129.765, 528.977 128.858 C 532.138 127.756, 532.985 125.848, 532.674 120.527 C 532.542 118.271, 532.981 117.464, 534.500 117.178 C 537.353 116.639, 541 112.997, 541 110.686 C 541 109.605, 540.212 108.134, 539.250 107.417 C 537.647 106.222, 537.629 105.878, 539.034 103.314 C 539.878 101.774, 541.453 100.358, 542.534 100.167 C 543.615 99.976, 545.293 98.848, 546.263 97.660 C 547.907 95.645, 548.113 95.615, 549.347 97.215 C 551.155 99.560, 553 97.625, 553 93.383 C 553 91.614, 553.563 89.966, 554.250 89.720 C 556.984 88.744, 553.671 87.655, 548.388 87.794 C 545.312 87.875, 541.302 87.317, 539.477 86.555 C 536.461 85.295, 536 85.343, 534.424 87.084 C 532.323 89.406, 530.423 89.545, 529.614 87.438 C 529.137 86.193, 528.099 86.013, 524.507 86.551 C 520.142 87.206, 520 87.145, 520 84.614 C 520 81.333, 517.333 81.111, 514.305 84.139 M 499.619 112.750 C 500.501 116.437, 500.965 117.139, 502.072 116.456 C 502.639 116.105, 502.593 115.109, 501.956 113.919 C 501.380 112.841, 501.180 111.518, 501.513 110.979 C 501.846 110.441, 501.408 110, 500.540 110 C 499.326 110, 499.113 110.634, 499.619 112.750 M 476.133 113.721 C 472.779 114.357, 468 119.574, 468 122.600 C 468 126.878, 469.747 128.998, 473.285 129.015 C 475.053 129.024, 476.993 129.361, 477.595 129.765 C 479.117 130.786, 480.112 137.921, 479.018 139.966 C 478.522 140.893, 478.432 143.862, 478.819 146.564 C 479.344 150.238, 479.993 151.568, 481.392 151.837 C 483.243 152.193, 488 148.059, 488 146.093 C 488 145.547, 488.706 144.704, 489.569 144.221 C 490.432 143.738, 491.269 142.150, 491.429 140.692 C 491.774 137.552, 493.455 135.308, 496.090 134.471 C 498.283 133.775, 498.697 131, 496.609 131 C 495.236 131, 492 124.332, 492 121.503 C 492 119.964, 487.839 116.757, 486.366 117.159 C 484.747 117.602, 481.187 115.930, 480.624 114.462 C 480.315 113.658, 479.711 113.061, 479.281 113.136 C 478.852 113.211, 477.435 113.474, 476.133 113.721 M 516 147.500 C 515.315 148.325, 514.162 149, 513.437 149 C 511.810 149, 511.420 149.638, 510.540 153.740 C 509.858 156.921, 509.902 156.970, 512.886 156.373 C 517.737 155.403, 521.170 156.664, 520.807 159.283 C 520.278 163.102, 524.133 162.602, 526.762 158.512 C 528.872 155.228, 528.926 154.759, 527.567 151.506 C 526.605 149.203, 525.626 148.206, 524.684 148.568 C 523.900 148.869, 522.989 148.414, 522.660 147.557 C 521.899 145.572, 517.630 145.536, 516 147.500" stroke="none" fill="#f07b35" fill-rule="evenodd"/><path d="M 590 210.642 C 588.625 210.865, 583.225 211.736, 578 212.577 C 572.775 213.418, 561.896 215.687, 553.824 217.619 L 539.147 221.132 539.659 224.816 C 540.512 230.960, 540.453 230.910, 546.193 230.347 C 553.575 229.624, 558.860 231.582, 561.449 236 C 563.480 239.466, 563.503 240.603, 563.778 354.432 C 563.976 435.788, 564.376 469.749, 565.151 470.682 C 567.200 473.150, 593.167 471.328, 597.750 468.394 L 600 466.954 600 340.668 C 600 241.179, 599.735 214.035, 598.750 212.746 C 597.343 210.904, 593.732 210.036, 590 210.642 M 120.500 240.666 C 104.691 241.426, 55.576 247.091, 54.374 248.293 C 54.255 248.411, 54.460 250.899, 54.829 253.821 L 55.500 259.135 63.679 259.317 C 72.516 259.515, 76.207 261.176, 78.735 266.096 C 79.691 267.956, 79.974 291.161, 79.985 368.679 C 80.002 482.202, 79.150 472, 88.611 472 C 97.806 472, 113.372 469.945, 115.732 468.420 L 117.963 466.978 118.232 364.024 C 118.484 267.058, 118.603 260.968, 120.271 259.301 C 121.693 257.879, 124.184 257.457, 132.936 257.157 C 153.295 256.461, 169.762 261.843, 180.787 272.800 C 191.030 282.978, 195 293.510, 195 310.500 C 195 343.053, 178.067 359.407, 139.202 364.392 C 128.414 365.776, 129.032 365.097, 130.556 373.893 L 131.144 377.285 140.604 376.620 C 162.935 375.050, 187.175 368.915, 201 361.333 C 210.347 356.206, 219.202 348.836, 224.532 341.746 C 233.568 329.726, 236.024 322.599, 236.733 306.346 C 237.561 287.342, 233.645 275.569, 222.689 264.124 C 205.600 246.274, 170.669 238.256, 120.500 240.666 M 291 325.982 C 285.775 326.968, 278.575 328.536, 275 329.467 C 266.142 331.774, 243.676 339.045, 242.749 339.906 C 241.802 340.784, 245.860 353, 247.098 353 C 247.601 353, 253.297 351.669, 259.756 350.042 C 275.667 346.035, 282.708 345.016, 294.572 345.008 C 310.279 344.996, 317.729 348.704, 322.207 358.761 C 324.553 364.032, 326.412 379.628, 325.236 384.178 L 324.378 387.500 310.076 388.180 C 265.011 390.322, 243.177 398.790, 233.908 417.720 C 231.894 421.834, 231.563 424.036, 231.534 433.518 C 231.502 443.953, 231.671 444.883, 234.741 451.123 C 242.694 467.286, 260.156 475.839, 279.218 472.908 C 288.228 471.523, 306.916 466.212, 317.276 462.092 C 321.553 460.391, 325.445 459, 325.926 459 C 326.407 459, 327.331 461.213, 327.980 463.917 C 329.875 471.815, 331.111 472.421, 343.748 471.648 C 355.303 470.942, 361.606 469.794, 363.315 468.085 C 364.075 467.325, 363.858 464.419, 362.565 458.052 C 360.909 449.892, 360.808 445.520, 361.438 409.294 C 362.031 375.244, 361.903 368.201, 360.546 360.500 C 356.876 339.673, 346.397 328.679, 326.647 324.933 C 319.016 323.486, 301.490 324.001, 291 325.982 M 686.500 325.552 C 669.904 328.652, 639.242 337.574, 636.578 340.077 C 635.462 341.126, 638.977 352.054, 640.635 352.690 C 641.259 352.929, 645.984 351.993, 651.135 350.609 C 667.862 346.113, 677.486 344.770, 689.957 345.191 C 699.263 345.505, 702.275 345.990, 705.500 347.693 C 714.682 352.542, 718.074 359.685, 718.779 375.660 C 719.365 388.959, 721.298 387.597, 700.646 388.434 C 667.559 389.774, 646.407 395.828, 635.017 407.219 C 618.662 423.573, 621.676 452.937, 641.037 465.866 C 656.652 476.293, 671.642 475.776, 706.487 463.609 C 713.630 461.115, 719.751 459.395, 720.090 459.787 C 720.428 460.179, 721.278 462.629, 721.977 465.231 C 723.823 472.094, 724.475 472.390, 736.282 471.706 C 748.697 470.987, 756.645 469.369, 757.397 467.407 C 757.706 466.603, 757.267 462.962, 756.421 459.317 C 755.146 453.818, 754.917 445.271, 755.076 409.095 C 755.182 385.118, 754.937 363.700, 754.531 361.500 C 751.014 342.406, 742.770 331.644, 728 326.863 C 719.354 324.065, 698.063 323.392, 686.500 325.552 M 405.500 327.131 C 399.450 328.205, 388.427 330.537, 381.005 332.313 L 367.511 335.542 367.852 339.521 C 368.040 341.710, 368.402 343.837, 368.656 344.250 C 368.910 344.663, 372.631 345, 376.924 345 C 383.236 345, 385.221 345.386, 387.293 347.016 C 391.998 350.716, 392.226 353.183, 391.850 396.318 C 391.469 440.042, 391.682 442.363, 397.052 453 C 404.656 468.060, 421.752 475.679, 441.727 472.908 C 451.840 471.505, 468.200 467.213, 484.737 461.623 C 492.017 459.162, 498.135 457.453, 498.333 457.824 C 498.530 458.196, 499.279 460.750, 499.998 463.500 C 502.224 472.021, 502.833 472.348, 515 471.557 C 527.972 470.714, 533.770 469.659, 535.624 467.805 C 536.861 466.567, 536.848 465.408, 535.526 459.123 C 534.256 453.086, 534 441.841, 534 392.084 C 534 351.185, 533.653 331.302, 532.900 329.143 C 531.051 323.840, 527.232 323.828, 501 329.049 C 481.097 333.011, 472.481 335.361, 472.600 336.795 C 472.655 337.458, 472.767 339.530, 472.850 341.401 L 473 344.801 481.896 345.151 C 492 345.547, 494.297 346.811, 495.989 352.900 C 496.584 355.042, 496.991 373.943, 496.994 399.577 L 497 442.654 489.250 445.285 C 473.117 450.762, 463.858 452.254, 454.353 450.908 C 442.107 449.174, 434.054 442.701, 430.217 431.508 C 428.687 427.046, 428.497 421.122, 428.468 377.146 C 428.438 329.748, 428.361 327.737, 426.527 326.396 C 424.029 324.569, 418.918 324.748, 405.500 327.131 M 309.500 402.092 C 289.606 403.423, 279.061 405.980, 273.645 410.788 C 270.499 413.581, 267.020 422.089, 267.015 427 C 267.003 440.444, 274.990 449.017, 289.436 451.062 C 296.360 452.043, 309.020 449.908, 319.250 446.034 L 325 443.856 325 422.428 C 325 402.632, 324.867 401.011, 323.250 401.145 C 322.288 401.224, 316.100 401.651, 309.500 402.092 M 709 401.683 C 697.116 402.360, 683.231 404.117, 677.853 405.624 C 666.752 408.734, 661.062 416.276, 661.022 427.934 C 660.984 438.997, 666.475 446.421, 677.306 449.951 C 685.444 452.604, 702.134 450.612, 714.250 445.542 L 718 443.973 718 434.644 C 718 429.512, 718.294 419.843, 718.654 413.157 L 719.307 401 716.904 401.185 C 715.582 401.287, 712.025 401.511, 709 401.683 M 619.624 511.518 C 618.731 512.412, 618 514.452, 618 516.052 C 618 518.374, 618.541 519.098, 620.681 519.635 C 624.972 520.712, 628.500 518.152, 628.500 513.962 C 628.500 510.705, 628.285 510.482, 624.874 510.197 C 622.529 510.001, 620.675 510.468, 619.624 511.518 M 61.699 512.780 C 59.560 515.143, 59.492 519.591, 61.582 520.393 C 66.873 522.423, 71.294 519.658, 70.804 514.625 C 70.533 511.836, 70.118 511.468, 66.949 511.201 C 64.468 510.993, 62.886 511.469, 61.699 512.780 M 406.942 511.888 C 398.083 514.784, 394.958 521.176, 398.387 529.383 C 399.725 532.586, 399.676 532.760, 396.999 534.342 C 395.473 535.243, 392.824 537.576, 391.112 539.525 C 385.600 545.803, 387.287 554.551, 394.599 557.606 C 399.390 559.608, 409.051 559.352, 415.072 557.065 C 420.105 555.152, 420.202 555.152, 423.332 557.061 C 427.182 559.408, 431.563 559.581, 432.393 557.418 C 433.798 553.758, 433.012 551.443, 429.977 550.297 L 426.954 549.156 429.463 545.460 C 432.403 541.127, 434.326 534.926, 433.107 533.707 C 432.638 533.238, 430.738 533, 428.886 533.177 C 425.939 533.460, 425.220 534.126, 423.147 538.500 L 420.778 543.500 417.389 539.583 C 415.525 537.429, 414 535.360, 414 534.985 C 414 534.610, 415.822 533.482, 418.049 532.478 C 420.276 531.474, 423.450 529.112, 425.102 527.231 C 429.028 522.759, 428.925 516.760, 424.870 513.744 C 421.938 511.564, 411.302 510.463, 406.942 511.888 M 478.509 520.949 C 477.928 524.388, 477.456 525, 475.387 525 C 473.666 525, 472.652 525.785, 471.934 527.672 C 470.640 531.078, 471.380 533, 473.988 533 C 475.601 533, 475.927 533.479, 475.518 535.250 C 471.606 552.183, 471.558 553.589, 474.773 557.250 C 475.873 558.502, 477.814 559, 481.598 559 C 485.929 559, 487.168 558.598, 488.443 556.777 C 491.127 552.946, 490.472 551, 486.500 551 C 483.209 551, 483.003 550.806, 483.042 547.750 C 483.066 545.962, 483.660 542.025, 484.362 539 C 485.578 533.764, 485.804 533.484, 489.066 533.168 C 493.516 532.737, 495 531.415, 495 527.878 C 495 525.244, 494.697 525, 491.422 525 C 487.895 525, 487.848 524.946, 488.172 521.250 L 488.500 517.500 483.846 517.199 L 479.193 516.898 478.509 520.949 M 407.818 521.500 C 406.964 523.375, 406.967 524.633, 407.832 526.530 C 408.948 528.980, 409.079 529.011, 411.983 527.509 C 415.406 525.739, 418.485 521.593, 417.527 520.044 C 417.172 519.470, 415.099 519, 412.920 519 C 409.663 519, 408.754 519.446, 407.818 521.500 M 513.750 523.689 C 512.788 523.941, 512 524.277, 512 524.436 C 512 524.595, 510.878 530.233, 509.507 536.966 C 508.136 543.699, 507.286 550.293, 507.619 551.619 C 509.110 557.560, 517.488 559.829, 523.774 555.996 C 527.664 553.624, 528 553.576, 528 555.393 C 528 558.874, 535.695 558.192, 536.505 554.639 C 540.728 536.113, 542.681 524.418, 541.659 523.768 C 540.163 522.816, 535.834 522.818, 534.337 523.770 C 533.698 524.177, 532.172 528.778, 530.948 533.995 C 529.105 541.842, 528.145 544.055, 525.383 546.817 C 518.518 553.682, 516.702 549.452, 519.884 534.010 C 521.348 526.908, 521.545 524.332, 520.670 523.775 C 519.420 522.980, 516.600 522.945, 513.750 523.689 M 572.176 523.870 C 571.448 524.332, 569.541 530.962, 567.939 538.605 C 566.337 546.247, 564.798 553.465, 564.520 554.644 C 564.130 556.300, 564.581 556.929, 566.508 557.413 C 572.183 558.837, 573.708 557.434, 575.476 549.162 C 578.298 535.961, 580.638 532.420, 586.934 531.825 C 589.787 531.555, 590.506 530.992, 591.179 528.500 C 591.625 526.850, 591.782 524.938, 591.527 524.250 C 590.790 522.264, 584.545 522.783, 581.635 525.073 C 579.596 526.676, 579 526.813, 579 525.680 C 579 523.331, 574.788 522.214, 572.176 523.870 M 617.768 524.250 C 616.723 525.059, 615.217 530.263, 613.499 539 C 612.039 546.425, 610.620 553.455, 610.346 554.622 C 609.959 556.268, 610.426 556.890, 612.424 557.391 C 613.841 557.747, 616.058 557.773, 617.351 557.448 C 619.511 556.906, 619.969 555.554, 622.976 540.815 C 625.692 527.503, 626.015 524.624, 624.875 523.901 C 622.891 522.645, 619.635 522.805, 617.768 524.250 M 657.198 524.673 C 651.337 527.561, 648.998 535.998, 652.959 539.959 C 654.036 541.036, 656.736 542.845, 658.959 543.979 C 663.227 546.157, 663.978 547.944, 661.490 550.008 C 660.474 550.851, 658.595 551.032, 655.740 550.562 C 647.600 549.221, 647.525 549.239, 647.195 552.633 C 646.929 555.372, 647.294 555.907, 650.095 556.883 C 658.388 559.774, 668.444 556.799, 671.395 550.580 C 674.447 544.148, 672.128 539.821, 663.682 536.192 C 661.593 535.294, 660.946 534.401, 661.182 532.740 C 661.436 530.949, 662.244 530.438, 665.208 530.192 C 667.247 530.023, 669.765 530.339, 670.804 530.895 C 673.161 532.156, 675 530.570, 675 527.275 C 675 525.700, 674.173 524.636, 672.435 523.975 C 668.548 522.498, 660.901 522.848, 657.198 524.673 M 704.363 523.741 C 703.350 524.417, 697 551.803, 697 555.493 C 697 557.438, 700.939 558.354, 704.112 557.147 C 706.310 556.312, 706.820 555.208, 707.946 548.842 C 709.934 537.608, 714.111 531, 719.223 531 C 721.577 531, 721.526 535.603, 719.042 547.498 C 718.008 552.446, 717.378 556.711, 717.642 556.975 C 718.315 557.648, 725.758 557.575, 726.445 556.889 C 726.756 556.577, 727.756 552.609, 728.666 548.071 C 730.452 539.167, 732.986 534.426, 737.237 532.040 C 739.380 530.838, 740.183 530.783, 741.170 531.770 C 742.157 532.757, 741.947 535.388, 740.140 544.656 C 738.296 554.121, 738.117 556.458, 739.185 557.136 C 741.115 558.359, 744.390 558.179, 746.205 556.750 C 747.945 555.380, 752 537.832, 752 531.671 C 752 523.550, 743.858 520.532, 735.242 525.459 L 730.984 527.893 728.537 525.447 C 725.243 522.152, 719.539 522.145, 714.700 525.429 L 711.120 527.858 710.810 525.679 C 710.486 523.405, 706.612 522.240, 704.363 523.741 M 788.500 524.662 C 780.671 528.789, 776.709 535.462, 776.584 544.731 C 776.507 550.451, 776.760 551.221, 779.681 554.143 C 782.288 556.750, 783.848 557.406, 788.319 557.777 C 801.520 558.871, 811.153 550.162, 811.397 536.912 C 811.521 530.176, 809.808 526.611, 805.454 524.545 C 801.279 522.564, 792.363 522.625, 788.500 524.662 M 103.001 525.070 C 96.157 527.945, 91.885 535.423, 91.214 545.699 C 90.759 552.665, 90.842 552.996, 93.795 555.949 C 96.258 558.412, 97.680 558.999, 101.173 558.996 C 103.676 558.994, 106.829 558.182, 108.653 557.070 C 111.764 555.173, 111.812 555.173, 112.309 557.074 C 112.895 559.313, 118.146 559.793, 119.715 557.750 C 120.243 557.063, 121.914 550.425, 123.427 543 C 124.941 535.575, 126.412 528.487, 126.698 527.250 C 127.172 525.195, 126.857 525, 123.077 525 C 120.268 525, 118.747 525.496, 118.345 526.543 C 117.819 527.914, 117.548 527.901, 115.917 526.425 C 113.679 524.399, 106.412 523.637, 103.001 525.070 M 159.315 526.528 C 149.747 532.262, 145.827 552.263, 153.251 557.463 C 156.304 559.602, 162.861 559.382, 166.750 557.011 C 170.447 554.757, 170.511 554.840, 168.606 559.401 C 166.921 563.433, 162.335 564.706, 155.818 562.951 C 152.129 561.958, 151.445 562.038, 150.303 563.600 C 146.638 568.613, 151.791 571.612, 162.582 570.745 C 170.799 570.086, 175.346 567.319, 177.428 561.710 C 179.121 557.149, 185 530.173, 185 526.965 C 185 525.339, 184.310 525, 181 525 C 178.129 525, 177 525.419, 177 526.485 C 177 527.697, 176.402 527.606, 173.750 525.989 C 169.361 523.313, 164.367 523.499, 159.315 526.528 M 221.007 525.593 C 213.765 528.733, 209.214 535.527, 208.278 544.592 C 207.227 554.781, 211.490 559, 222.836 559 C 232.247 559, 235.953 557.065, 235.985 552.133 C 235.998 550.150, 235.636 549.872, 233.750 550.420 C 232.512 550.779, 229.146 551.344, 226.269 551.675 C 220.131 552.380, 218 551.144, 218 546.878 C 218 544.074, 218.134 544, 223.250 543.994 C 234.062 543.983, 241 540.069, 241 533.980 C 241 529.577, 239.362 527.049, 235.452 525.415 C 231.109 523.601, 225.440 523.671, 221.007 525.593 M 281.343 526.510 C 277.349 528.905, 277.208 528.921, 277.727 526.937 C 278.219 525.054, 277.886 524.900, 273.958 525.186 L 269.649 525.500 266.335 541.448 C 262.798 558.474, 262.845 558.969, 268 558.969 C 272.016 558.969, 272.700 557.955, 274.574 549.226 C 275.552 544.675, 277.150 539.637, 278.128 538.030 C 280.331 534.407, 284.487 531.589, 286.492 532.359 C 288.484 533.123, 288.395 535.858, 286.002 547.489 C 284.903 552.829, 284.255 557.604, 284.561 558.099 C 285.227 559.177, 291.028 559.274, 292.636 558.235 C 293.993 557.357, 298 538.369, 298 532.815 C 298 524.525, 289.820 521.429, 281.343 526.510 M 331.348 526.057 C 323.913 529.737, 322.659 538.614, 329 542.681 C 336.911 547.756, 337.095 547.954, 335.922 550.146 C 335.011 551.847, 334.134 552.103, 330.665 551.682 C 328.374 551.404, 325.323 550.871, 323.884 550.498 C 321.588 549.901, 321.199 550.165, 320.706 552.659 C 319.936 556.552, 321.850 558.183, 327.869 558.761 C 335.136 559.460, 339.510 558.336, 342.961 554.885 C 345.393 552.454, 346 550.997, 346 547.597 C 346 542.966, 344.159 540.577, 338.313 537.624 C 334.321 535.607, 333.498 534.310, 335.036 532.456 C 336.475 530.723, 341.291 530.550, 344.237 532.127 C 345.956 533.047, 346.585 532.920, 347.671 531.435 C 349.867 528.432, 349.250 526.283, 345.851 525.098 C 341.084 523.436, 335.958 523.775, 331.348 526.057 M 0.583 525.866 C -0.293 527.282, 4.187 557.436, 5.392 558.235 C 7.440 559.592, 14.805 559.052, 16.432 557.425 C 21.066 552.791, 30.737 534.966, 32.533 527.750 C 33.209 525.030, 33.162 525, 28.306 525 L 23.395 525 21.544 530.250 C 19.076 537.252, 14.179 547, 13.129 547 C 12.666 547, 11.984 543.737, 11.614 539.750 C 10.223 524.752, 10.326 525, 5.431 525 C 3.059 525, 0.877 525.390, 0.583 525.866 M 58.525 526.250 C 57.104 530.558, 52.077 557.315, 52.546 558.074 C 53.224 559.171, 59.017 559.287, 60.619 558.235 C 61.614 557.582, 68 530.072, 68 526.441 C 68 524.571, 59.138 524.393, 58.525 526.250 M 793.308 531.019 C 788.799 532.816, 785.085 542.462, 786.981 547.451 C 787.790 549.577, 788.593 550, 791.820 550 C 795.788 550, 797.606 548.696, 799.951 544.167 C 801.470 541.234, 801.827 533.406, 800.499 532.161 C 798.838 530.604, 795.629 530.094, 793.308 531.019 M 222.635 533.073 C 221.186 534.212, 220 535.846, 220 536.703 C 220 537.962, 220.881 538.161, 224.603 537.741 C 230.198 537.111, 232.971 534.875, 231.042 532.550 C 229.255 530.398, 225.759 530.615, 222.635 533.073 M 104.629 535.029 C 100.423 540.028, 99.626 550.127, 103.381 550.840 C 107.867 551.692, 113.190 545.962, 114.505 538.869 C 115.076 535.786, 114.829 534.994, 112.866 533.619 C 109.511 531.269, 107.504 531.612, 104.629 535.029 M 164.237 533.547 C 161.202 535.672, 158.393 545.373, 159.873 548.620 C 162.398 554.162, 169.893 549.310, 172.591 540.386 C 174.011 535.692, 173.984 535.431, 171.924 533.750 C 169.278 531.592, 167.110 531.534, 164.237 533.547 M 401.010 541.836 C 397.652 545.194, 397.339 546.714, 399.420 549.559 C 400.475 551.001, 401.968 551.477, 405.225 551.409 C 413.049 551.246, 413.497 550.238, 408.448 544.158 L 404.020 538.826 401.010 541.836" stroke="none" fill="#2c54a4" fill-rule="evenodd"/></svg>